HIERARCHY
ROOT hip
{
  OFFSET -40.1423 89.467 138.17
  CHANNELS 6 Xposition Yposition Zposition Zrotation Xrotation Yrotation
  JOINT abdomen
  {
    OFFSET 0 20.6881 -0.73152
    CHANNELS 3 Zrotation Xrotation Yrotation
    JOINT chest
    {
      OFFSET 0 11.7043 -0.48768
      CHANNELS 3 Zrotation Xrotation Yrotation
      JOINT neck
      {
        OFFSET 0 22.1894 -2.19456
        CHANNELS 3 Zrotation Xrotation Yrotation
        JOINT head
        {
          OFFSET -0.24384 7.07133 1.2192
          CHANNELS 3 Zrotation Xrotation Yrotation
          JOINT leftEye
          {
            OFFSET 4.14528 8.04674 8.04672
            CHANNELS 3 Zrotation Xrotation Yrotation
            End Site
            {
              OFFSET 1 0 0
            }
          }
          JOINT rightEye
          {
            OFFSET -3.6576 8.04674 8.04672
            CHANNELS 3 Zrotation Xrotation Yrotation
            End Site
            {
              OFFSET 1 0 0
            }
          }
        }
      }
      JOINT rCollar
      {
        OFFSET -2.68224 19.2634 -4.8768
        CHANNELS 3 Zrotation Xrotation Yrotation
        JOINT rShldr
        {
          OFFSET -8.77824 -1.95073 1.46304
          CHANNELS 3 Zrotation Xrotation Yrotation
          JOINT rForeArm
          {
            OFFSET -28.1742 -1.7115 0.48768
            CHANNELS 3 Zrotation Xrotation Yrotation
            JOINT rHand
            {
              OFFSET -22.5879 0.773209 7.07136
              CHANNELS 3 Zrotation Xrotation Yrotation
              JOINT rThumb1
              {
                OFFSET -1.2192 -0.487915 3.41376
                CHANNELS 3 Zrotation Xrotation Yrotation
                JOINT rThumb2
                {
                  OFFSET -3.37035 -0.52449 3.41376
                  CHANNELS 3 Zrotation Xrotation Yrotation
                  End Site
                  {
                    OFFSET -1.78271 -1.18214 1.43049
                  }
                }
              }
              JOINT rIndex1
              {
                OFFSET -7.75947 0.938293 5.60832
                CHANNELS 3 Zrotation Xrotation Yrotation
                JOINT rIndex2
                {
                  OFFSET -2.54057 -0.884171 1.56538
                  CHANNELS 3 Zrotation Xrotation Yrotation
                  End Site
                  {
                    OFFSET -1.62519 -0.234802 1.16502
                  }
                }
              }
              JOINT rMid1
              {
                OFFSET -8.24714 1.18213 3.41376
                CHANNELS 3 Zrotation Xrotation Yrotation
                JOINT rMid2
                {
                  OFFSET -3.10165 -0.590103 1.0647
                  CHANNELS 3 Zrotation Xrotation Yrotation
                  End Site
                  {
                    OFFSET -2.48547 -0.328903 0.83742
                  }
                }
              }
              JOINT rRing1
              {
                OFFSET -8.82822 0.546677 1.51678
                CHANNELS 3 Zrotation Xrotation Yrotation
                JOINT rRing2
                {
                  OFFSET -2.60934 -0.819778 -0.0198488
                  CHANNELS 3 Zrotation Xrotation Yrotation
                  End Site
                  {
                    OFFSET -2.33842 -0.294052 0.168128
                  }
                }
              }
              JOINT rPinky1
              {
                OFFSET -8.27202 -0.0477905 -0.4584
                CHANNELS 3 Zrotation Xrotation Yrotation
                JOINT rPinky2
                {
                  OFFSET -1.82734 -0.647385 -0.700984
                  CHANNELS 3 Zrotation Xrotation Yrotation
                  End Site
                  {
                    OFFSET -1.69225 -0.51767 -0.607171
                  }
                }
              }
            }
          }
        }
      }
      JOINT lCollar
      {
        OFFSET 2.68224 19.2634 -4.8768
        CHANNELS 3 Zrotation Xrotation Yrotation
        JOINT lShldr
        {
          OFFSET 8.77824 -1.95073 1.46304
          CHANNELS 3 Zrotation Xrotation Yrotation
          JOINT lForeArm
          {
            OFFSET 28.1742 -1.7115 0.48768
            CHANNELS 3 Zrotation Xrotation Yrotation
            JOINT lHand
            {
              OFFSET 22.5879 0.773209 7.07136
              CHANNELS 3 Zrotation Xrotation Yrotation
              JOINT lThumb1
              {
                OFFSET 1.2192 -0.487915 3.41376
                CHANNELS 3 Zrotation Xrotation Yrotation
                JOINT lThumb2
                {
                  OFFSET 3.37035 -0.52449 3.41376
                  CHANNELS 3 Zrotation Xrotation Yrotation
                  End Site
                  {
                    OFFSET 1.78271 -1.18214 1.43049
                  }
                }
              }
              JOINT lIndex1
              {
                OFFSET 7.75947 0.938293 5.60832
                CHANNELS 3 Zrotation Xrotation Yrotation
                JOINT lIndex2
                {
                  OFFSET 2.54057 -0.884171 1.56538
                  CHANNELS 3 Zrotation Xrotation Yrotation
                  End Site
                  {
                    OFFSET 1.62519 -0.234802 1.16502
                  }
                }
              }
              JOINT lMid1
              {
                OFFSET 8.24714 1.18213 3.41376
                CHANNELS 3 Zrotation Xrotation Yrotation
                JOINT lMid2
                {
                  OFFSET 3.10165 -0.590103 1.0647
                  CHANNELS 3 Zrotation Xrotation Yrotation
                  End Site
                  {
                    OFFSET 2.48547 -0.328903 0.83742
                  }
                }
              }
              JOINT lRing1
              {
                OFFSET 8.82822 0.546677 1.51678
                CHANNELS 3 Zrotation Xrotation Yrotation
                JOINT lRing2
                {
                  OFFSET 2.60934 -0.819778 -0.0198488
                  CHANNELS 3 Zrotation Xrotation Yrotation
                  End Site
                  {
                    OFFSET 2.33842 -0.294052 0.168128
                  }
                }
              }
              JOINT lPinky1
              {
                OFFSET 8.27202 -0.0477905 -0.4584
                CHANNELS 3 Zrotation Xrotation Yrotation
                JOINT lPinky2
                {
                  OFFSET 1.82734 -0.647385 -0.700984
                  CHANNELS 3 Zrotation Xrotation Yrotation
                  End Site
                  {
                    OFFSET 1.69225 -0.51767 -0.607171
                  }
                }
              }
            }
          }
        }
      }
    }
  }
  JOINT rButtock
  {
    OFFSET -8.77824 4.35084 1.2192
    CHANNELS 3 Zrotation Xrotation Yrotation
    JOINT rThigh
    {
      OFFSET 0 -1.70687 -2.19456
      CHANNELS 3 Zrotation Xrotation Yrotation
      JOINT rShin
      {
        OFFSET 0 -36.8199 0.73152
        CHANNELS 3 Zrotation Xrotation Yrotation
        JOINT rFoot
        {
          OFFSET 0.73152 -45.1104 -5.12064
          CHANNELS 3 Zrotation Xrotation Yrotation
          End Site
          {
            OFFSET -1.1221 -3.69964 12.103
          }
        }
      }
    }
  }
  JOINT lButtock
  {
    OFFSET 8.77824 4.35084 1.2192
    CHANNELS 3 Zrotation Xrotation Yrotation
    JOINT lThigh
    {
      OFFSET 0 -1.70687 -2.19456
      CHANNELS 3 Zrotation Xrotation Yrotation
      JOINT lShin
      {
        OFFSET 0 -36.8199 0.73152
        CHANNELS 3 Zrotation Xrotation Yrotation
        JOINT lFoot
        {
          OFFSET -0.73152 -45.1104 -5.12064
          CHANNELS 3 Zrotation Xrotation Yrotation
          End Site
          {
            OFFSET 1.1221 -3.69964 12.103
          }
        }
      }
    }
  }
}
MOTION
Frames:	6
Frame Time:	0.00833333
-60.6397 84.5501 -13.6481 0.558837 -0.000781597 -0.00981824 -0.735075 -0.00369181 -0.0206967 -0.202668 -0.00499124 -0.0351147 -5.31378e-015 -1.59028e-015 -3.72721e-017 -1.59432e-014 -6.36111e-015 -6.21202e-017 -0 0 0 -0 0 0 -2.78436e-015 7.18265e-018 1.49089e-016 -5.37204e-014 2.17421e-016 3.97569e-016 -9.66342e-013 2.95593e-013 0 -1.10801e-011 -2.63191e-013 -7.95139e-014 -2.61314e-011 7.05579e-014 -1.33583e-013 -4.51178e-011 1.24042e-013 -2.41722e-013 -2.61243e-011 7.39479e-014 -1.43125e-013 7.73091 5.47488 0.417314 -2.61301e-011 7.13637e-014 -1.36764e-013 2.90554 0.965183 0.102902 -2.61182e-011 7.17613e-014 -1.43125e-013 10.2786 0.731801 0.0259123 -2.61291e-011 6.79844e-014 -1.39944e-013 2.22167 -0.733487 -0.20892 -2.78178e-015 5.82377e-018 -1.49089e-016 -6.0018e-014 2.23633e-016 -1.39149e-015 -9.70914e-013 -2.82871e-013 0 -1.1073e-011 3.16739e-013 -6.67917e-014 -2.61251e-011 7.15392e-014 -1.49486e-013 -4.51158e-011 1.24042e-013 -2.5524e-013 -2.61346e-011 7.4743e-014 -1.43125e-013 -7.73091 5.47488 -0.417314 -2.61258e-011 7.196e-014 -1.52667e-013 -2.90554 0.965183 -0.102902 -2.61391e-011 7.2457e-014 -1.44715e-013 -10.2786 0.731801 -0.0259123 -2.61275e-011 7.23576e-014 -1.43125e-013 -2.22167 -0.733487 0.20892 -2.03217e-016 0 -3.88251e-019 -0.0337496 -2.13127 -0.0183771 -0.00890458 -1.6921 -0.0751075 -0.523045 3.82304 0.138334 2.03217e-016 0 3.88251e-019 -1.08326 -4.91192 0.0910183 0.00129008 3.34458 -0.00266776 0.53106 1.56715 -0.0928238 
-57.3228 83.631 -15.443 2.25965 1.98766 5.47952 -0.371327 -1.22064 -2.45125 2.04471 -1.13431 -0.640045 -2.25665 3.00446 0.528785 6.44531 -11.358 3.63096 -0 0 0 -0 0 0 -8.20678e-014 -6.65302e-014 -3.3561e-013 14.7611 4.11767 27.604 -8.56917 -5.45738 11.258 0.112207 -7.47186 -1.01855 1.86489e-009 2.92379e-009 -6.27857e-010 3.22595e-009 5.05099e-009 -1.04523e-009 1.86489e-009 2.9238e-009 -6.27864e-010 7.73091 5.47488 0.417314 1.86489e-009 2.92379e-009 -6.27859e-010 2.90554 0.965183 0.102902 1.8649e-009 2.92379e-009 -6.27864e-010 10.2786 0.731801 0.0259123 1.86489e-009 2.92379e-009 -6.27859e-010 2.22167 -0.733487 -0.20892 -8.20603e-014 -6.65279e-014 -3.35881e-013 -14.9437 -2.80747 -27.3863 8.30472 -5.20804 -11.0422 -0.656747 -18.1554 2.11277 2.27862e-010 -1.53662e-009 -1.06262e-009 4.51293e-010 -2.68715e-009 -1.81752e-009 2.27856e-010 -1.53661e-009 -1.06261e-009 -7.73091 5.47488 -0.417314 2.27862e-010 -1.53662e-009 -1.06262e-009 -2.90554 0.965183 -0.102902 2.2785e-010 -1.53662e-009 -1.06261e-009 -10.2786 0.731801 -0.0259123 2.2786e-010 -1.53662e-009 -1.06261e-009 -2.22167 -0.733487 0.20892 -2.03217e-016 0 -3.88251e-019 -2.99953 -14.3386 -2.69568 -0.0125761 7.6898 0.0439543 -0.550486 5.50671 -3.4633 2.03217e-016 0 3.88251e-019 -2.08989 -1.64181 -0.21437 -0.0426075 8.41696 -0.178989 0.263742 -1.91362 -2.8742 
-57.2498 83.5242 -14.1767 3.66616 4.0486 11.3608 -0.148739 -2.53079 -5.03531 4.39825 -2.32518 -1.28363 -4.71521 6.17695 1.08993 14.9636 -23.2248 7.9786 -0 0 0 -0 0 0 -1.68223e-013 -1.40417e-013 -7.04086e-013 26.8717 5.43136 57.0709 -15.3124 -10.5046 23.4547 -0.0690486 -15.4408 -2.1657 3.9334e-009 6.11599e-009 -1.31215e-009 6.80399e-009 1.05655e-008 -2.18414e-009 3.93341e-009 6.116e-009 -1.31216e-009 7.73091 5.47488 0.417314 3.93341e-009 6.11599e-009 -1.31215e-009 2.90554 0.965183 0.102902 3.93342e-009 6.11599e-009 -1.31216e-009 10.2786 0.731801 0.0259123 3.9334e-009 6.11599e-009 -1.31215e-009 2.22167 -0.733487 -0.20892 -1.68209e-013 -1.40411e-013 -7.04328e-013 -33.2361 -3.32664 -56.44 14.9052 -10.0376 -22.9658 0.444137 -37.3066 5.19835 5.01277e-010 -3.20193e-009 -2.21911e-009 9.86465e-010 -5.59955e-009 -3.79574e-009 5.01276e-010 -3.20192e-009 -2.2191e-009 -7.73091 5.47488 -0.417314 5.01279e-010 -3.20193e-009 -2.21911e-009 -2.90554 0.965183 -0.102902 5.01268e-010 -3.20193e-009 -2.2191e-009 -10.2786 0.731801 -0.0259123 5.01275e-010 -3.20193e-009 -2.2191e-009 -2.22167 -0.733487 0.20892 -2.03217e-016 0 -3.88251e-019 -7.57624 -27.125 -6.0107 -0.059748 17.5208 0.176464 -0.339586 7.29796 -7.36458 2.03217e-016 0 3.88251e-019 -3.13982 1.90037 -0.562883 -0.0544476 13.5934 -0.370293 -0.392006 -5.69007 -5.81356 
-57.1847 83.3831 -12.995 4.53087 5.74584 16.5337 0.0468261 -3.62812 -7.32544 6.46784 -3.39138 -1.85278 -6.93806 9.01028 1.60397 24.35 -33.4703 12.8354 -0 0 0 -0 0 0 -2.40635e-013 -1.99605e-013 -1.00713e-012 36.9126 1.78194 82.7961 -19.5351 -13.8379 34.7654 -0.515135 -22.386 -3.27689 5.64692e-009 8.77124e-009 -1.8833e-009 9.76809e-009 1.51527e-008 -3.13519e-009 5.64693e-009 8.77124e-009 -1.88331e-009 7.73091 5.47488 0.417314 5.64692e-009 8.77124e-009 -1.8833e-009 2.90554 0.965183 0.102902 5.64693e-009 8.77124e-009 -1.88331e-009 10.2786 0.731801 0.0259123 5.64692e-009 8.77124e-009 -1.8833e-009 2.22167 -0.733487 -0.20892 -2.40617e-013 -1.99595e-013 -1.00735e-012 -49.8647 -1.30545 -82.1592 19.1327 -13.2991 -34.019 4.4221 -54.0599 10.2975 7.35835e-010 -4.61e-009 -3.18756e-009 1.44411e-009 -8.06169e-009 -5.45204e-009 7.35838e-010 -4.60999e-009 -3.18754e-009 -7.73091 5.47488 -0.417314 7.35838e-010 -4.61e-009 -3.18755e-009 -2.90554 0.965183 -0.102902 7.35829e-010 -4.61e-009 -3.18755e-009 -10.2786 0.731801 -0.0259123 7.35834e-010 -4.61e-009 -3.18754e-009 -2.22167 -0.733487 0.20892 -2.03217e-016 0 -3.88251e-019 -13.154 -38.3741 -9.96652 -0.146441 26.4533 0.313669 0.0314743 8.75041 -10.7445 2.03217e-016 0 3.88251e-019 -3.99849 4.89787 -0.827234 -0.0321129 18.5611 -0.554711 -1.29045 -8.78559 -8.53306 
-57.1596 83.2281 -11.8868 4.86829 6.75711 19.8588 0.407584 -4.22062 -8.86671 7.87851 -4.14741 -2.23312 -8.45402 10.9986 1.98375 32.1203 -40.2342 17.1189 -0 0 0 -0 0 0 -2.78688e-013 -2.22049e-013 -1.14659e-012 44.9076 -2.6331 100.036 -21.6769 -15.2797 42.9253 -0.970427 -26.8025 -4.07142 6.47294e-009 1.00841e-008 -2.1716e-009 1.11974e-008 1.7422e-008 -3.6166e-009 6.47295e-009 1.00841e-008 -2.1716e-009 7.73091 5.47488 0.417314 6.47294e-009 1.00841e-008 -2.17159e-009 2.90554 0.965183 0.102902 6.47295e-009 1.00841e-008 -2.1716e-009 10.2786 0.731801 0.0259123 6.47293e-009 1.00841e-008 -2.17159e-009 2.22167 -0.733487 -0.20892 -2.78673e-013 -2.22035e-013 -1.14679e-012 -60.7798 2.46343 -99.5315 21.3483 -14.8083 -42.063 11.3111 -65.1118 17.6339 8.7325e-010 -5.37498e-009 -3.68589e-009 1.70794e-009 -9.39814e-009 -6.30353e-009 8.73256e-010 -5.37497e-009 -3.68587e-009 -7.73091 5.47488 -0.417314 8.73254e-010 -5.37498e-009 -3.68588e-009 -2.90554 0.965183 -0.102902 8.73245e-010 -5.37498e-009 -3.68588e-009 -10.2786 0.731801 -0.0259123 8.7325e-010 -5.37498e-009 -3.68588e-009 -2.22167 -0.733487 0.20892 -2.03217e-016 0 -3.88251e-019 -18.0988 -46.1178 -13.8269 -0.244161 33.1395 0.433458 0.307275 9.4771 -12.7483 2.03217e-016 0 3.88251e-019 -4.46993 6.53457 -0.874906 0.0135457 23.007 -0.705615 -2.02722 -10.2709 -10.5891 
-57.0963 82.9912 -10.8397 4.78937 6.95152 20.5243 1.14582 -4.13846 -9.34631 8.38504 -4.49364 -2.3456 -8.91143 11.869 2.19066 35.2394 -42.687 19.021 -0 0 0 -0 0 0 -2.67179e-013 -1.90121e-013 -1.05152e-012 47.8677 -3.42508 106.398 -22.4257 -15.6829 46.3236 -1.11205 -27.7315 -4.25781 6.05412e-009 9.59236e-009 -2.04869e-009 1.04738e-008 1.65761e-008 -3.41531e-009 6.05413e-009 9.59236e-009 -2.0487e-009 7.73091 5.47488 0.417314 6.05412e-009 9.59236e-009 -2.04869e-009 2.90554 0.965183 0.102902 6.05413e-009 9.59236e-009 -2.04869e-009 10.2786 0.731801 0.0259123 6.05412e-009 9.59236e-009 -2.04868e-009 2.22167 -0.733487 -0.20892 -2.67176e-013 -1.90102e-013 -1.05171e-012 -64.731 6.08608 -105.234 22.1848 -15.3356 -45.5843 15.58 -68.7317 21.9748 8.80281e-010 -5.31148e-009 -3.55271e-009 1.71097e-009 -9.28503e-009 -6.0738e-009 8.80287e-010 -5.31147e-009 -3.55269e-009 -7.73091 5.47488 -0.417314 8.80285e-010 -5.31148e-009 -3.5527e-009 -2.90554 0.965183 -0.102902 8.80275e-010 -5.31148e-009 -3.5527e-009 -10.2786 0.731801 -0.0259123 8.80281e-010 -5.31148e-009 -3.5527e-009 -2.22167 -0.733487 0.20892 -2.03217e-016 0 -3.88251e-019 -19.8707 -49.3268 -15.862 -0.308105 36.7221 0.504153 0.255099 9.28517 -12.7347 2.03217e-016 0 3.88251e-019 -4.41233 6.24879 -0.59759 0.0628827 26.7765 -0.802127 -2.17296 -9.4808 -11.6613 
